<svg width="54" height="36" viewBox="0 0 54 36" fill="none" xmlns="http://www.w3.org/2000/svg">
<path d="M54 18C54 27.9411 45.8322 36 35.7568 36C25.6813 36 17.5135 27.9411 17.5135 18C17.5135 8.05888 25.6813 0 35.7568 0C45.8322 0 54 8.05888 54 18Z" fill="#0073FF"/>
<path d="M14.5946 5.76C22.2721 5.76 28.5602 11.6095 29.1407 19.0378C29.0762 19.3547 29.0438 19.683 29.0438 20.0222C29.0438 20.3923 29.0821 20.7483 29.155 21.0909C28.6686 28.6099 22.3379 34.56 14.5946 34.56C6.53422 34.56 0 28.1129 0 20.16C0 12.2071 6.53422 5.76 14.5946 5.76ZM14.1271 12.1598C13.1817 12.1599 12.318 12.3265 11.536 12.6605C10.7538 12.983 10.0757 13.4317 9.50359 14.0077C8.94316 14.5837 8.50617 15.2527 8.19093 16.013C7.88744 16.7731 7.73493 17.5848 7.73485 18.4486C7.73485 19.3126 7.89282 20.1253 8.20803 20.8856C8.5349 21.6343 8.98434 22.2967 9.55632 22.8727C10.1401 23.4487 10.8181 23.8987 11.5887 24.2212C12.3707 24.5436 13.2169 24.7049 14.1271 24.705C15.2013 24.705 16.1244 24.5263 16.895 24.1692C17.6772 23.8006 18.3022 23.3398 18.7692 22.7869L16.9819 21.2836C16.6201 21.675 16.2113 21.9681 15.7562 22.1639C15.3008 22.3597 14.7753 22.4578 14.1798 22.4578C13.3743 22.4578 12.6798 22.2791 12.0961 21.922C11.5124 21.5534 11.0631 21.0698 10.7478 20.4708C10.4326 19.8602 10.2747 19.1859 10.2747 18.4486C10.2747 17.7116 10.4327 17.0382 10.7478 16.4278C11.0631 15.8173 11.5069 15.3269 12.079 14.9583C12.6626 14.59 13.3453 14.4057 14.1271 14.4056C15.2246 14.4056 16.1423 14.7858 16.8779 15.5461L18.611 14.0597C18.0623 13.4148 17.4262 12.9363 16.7025 12.6253C15.9903 12.3143 15.1312 12.1598 14.1271 12.1598ZM23.5822 15.2873C22.6482 15.2873 21.8122 15.4995 21.0766 15.9258C20.3411 16.352 19.7638 16.923 19.3435 17.6372C18.935 18.3513 18.7308 19.1401 18.7307 20.0039C18.7307 20.8679 18.9349 21.6578 19.3435 22.372C19.7638 23.0745 20.3414 23.639 21.0766 24.0652C21.8122 24.4914 22.6482 24.705 23.5822 24.705C24.5277 24.7049 25.3627 24.4913 26.0864 24.0652C26.8218 23.639 27.3938 23.0746 27.8024 22.372C28.2227 21.6578 28.4324 20.8679 28.4324 20.0039C28.4323 19.1402 28.2226 18.3512 27.8024 17.6372C27.3938 16.923 26.822 16.352 26.0864 15.9258C25.3627 15.4996 24.5277 15.2874 23.5822 15.2873ZM38.7811 24.48H36.4865V23.0119C36.2413 23.5184 35.8912 23.9272 35.4361 24.2381C34.9925 24.5491 34.3619 24.705 33.5448 24.705C32.7158 24.705 31.9561 24.4968 31.2672 24.082C30.5903 23.6559 30.0481 23.0914 29.6396 22.3889C29.4127 21.9808 29.2522 21.548 29.155 21.0909C29.1749 20.7831 29.1892 20.4728 29.1892 20.16C29.1892 19.7822 29.1697 19.4082 29.1407 19.0378C29.199 18.752 29.2837 18.4744 29.3944 18.2067C29.6279 17.631 29.948 17.1295 30.3565 16.7034C30.7651 16.2657 31.239 15.9258 31.776 15.6839C32.3246 15.4306 32.9145 15.3042 33.5448 15.3042C34.3268 15.3043 34.9397 15.4481 35.3833 15.7359C35.8269 16.0239 36.1715 16.4042 36.4166 16.8764V11.8659H38.7811V24.48ZM44.5463 15.2691C45.457 15.2691 46.2576 15.4827 46.9464 15.9089C47.6468 16.3351 48.1888 16.9116 48.5741 17.6372C48.9709 18.3513 49.1697 19.1401 49.1698 20.0039C49.1698 20.1306 49.1644 20.2637 49.1527 20.4019C49.141 20.54 49.1233 20.6839 49.1 20.8336H42.2873C42.4157 21.3635 42.673 21.7961 43.0583 22.1302C43.4552 22.464 43.9511 22.6307 44.5463 22.6308C45.06 22.6308 45.5039 22.5152 45.8775 22.2848C46.2627 22.0545 46.561 21.767 46.7711 21.4214L48.6097 22.7869C48.2477 23.3512 47.7044 23.8122 46.9806 24.1692C46.2568 24.5262 45.4452 24.705 44.5463 24.705C43.6125 24.7049 42.7898 24.4912 42.0778 24.0652C41.3655 23.6389 40.81 23.0748 40.4131 22.372C40.0278 21.6578 39.8358 20.8679 39.8358 20.0039C39.8359 19.1401 40.0401 18.3513 40.4487 17.6372C40.8573 16.9115 41.4115 16.3351 42.112 15.9089C42.8241 15.4827 43.6357 15.2691 44.5463 15.2691ZM51.1267 21.6802C51.582 21.6802 51.9565 21.8306 52.2484 22.1302C52.5399 22.4295 52.6858 22.7806 52.6859 23.1834C52.6859 23.598 52.54 23.9556 52.2484 24.255C51.9565 24.5545 51.582 24.705 51.1267 24.705C50.6716 24.7049 50.2928 24.5543 49.9893 24.255C49.6974 23.9555 49.5504 23.5982 49.5504 23.1834C49.5505 22.7805 49.6976 22.4295 49.9893 22.1302C50.2928 21.8309 50.6716 21.6802 51.1267 21.6802ZM33.9296 17.4122C33.4276 17.4122 32.9837 17.5331 32.5984 17.775C32.2248 18.0054 31.9334 18.3171 31.7233 18.7087C31.5133 19.1002 31.4084 19.5319 31.4083 20.0039C31.4083 20.4532 31.5131 20.8804 31.7233 21.2836C31.9334 21.6751 32.2249 21.9924 32.5984 22.2342C32.9836 22.4761 33.4276 22.597 33.9296 22.597C34.4548 22.597 34.9043 22.4813 35.2779 22.2511C35.6632 22.0092 35.9613 21.6921 36.1715 21.3005C36.3816 20.9089 36.4864 20.4828 36.4865 20.0222C36.4865 19.5499 36.3817 19.1173 36.1715 18.7256C35.9613 18.334 35.6631 18.0169 35.2779 17.775C34.9043 17.5333 34.4548 17.4122 33.9296 17.4122ZM23.5822 17.4122C24.0839 17.4123 24.5215 17.5333 24.8949 17.775C25.2685 18.0054 25.5544 18.3171 25.7529 18.7087C25.963 19.1003 26.0678 19.5318 26.0679 20.0039C26.0679 20.4647 25.9631 20.8919 25.7529 21.2836C25.5544 21.6751 25.2684 21.9924 24.8949 22.2342C24.5215 22.4643 24.0838 22.5786 23.5822 22.5788C23.0803 22.5788 22.6417 22.4645 22.2682 22.2342C21.8947 21.9924 21.6032 21.675 21.3931 21.2836C21.1946 20.8919 21.0952 20.4647 21.0952 20.0039C21.0953 19.5318 21.1946 19.1003 21.3931 18.7087C21.6032 18.3171 21.8946 18.0054 22.2682 17.775C22.6417 17.5332 23.0803 17.4122 23.5822 17.4122ZM44.5121 17.2744C43.9517 17.2744 43.4724 17.441 43.0754 17.775C42.6785 18.109 42.4157 18.5471 42.2873 19.0884H46.7882C46.6598 18.5933 46.3914 18.1672 45.9829 17.8102C45.5861 17.4531 45.0957 17.2745 44.5121 17.2744Z" fill="white"/>
</svg>
